<?xml version="1.0" encoding="iso-8859-1"?>
<!-- Generator: Adobe Illustrator 19.0.0, SVG Export Plug-In . SVG Version: 6.00 Build 0)  -->
<svg version="1.1" id="Layer_1" xmlns="http://www.w3.org/2000/svg" xmlns:xlink="http://www.w3.org/1999/xlink" x="0px" y="0px"
	 viewBox="0 0 512 512" style="enable-background:new 0 0 512 512;" xml:space="preserve">
<g>
	<g>
		<path d="M255.999,0C114.841,0,0,114.841,0,256.001S114.841,512,255.999,512C397.159,512,512,397.16,512,256.001
			S397.159,0,255.999,0z M255.999,493.702c-131.068,0-237.7-106.632-237.7-237.702s106.632-237.702,237.7-237.702
			c131.069,0,237.702,106.632,237.702,237.702S387.068,493.702,255.999,493.702z"/>
	</g>
</g>
<g>
	<g>
		<path d="M367.008,339.521c-3.499-3.648-9.29-3.768-12.936-0.272c-1.62,1.553-6.373,6.009-8.879,7.952
			c-48.911,37.923-146.79,33.888-187.018-7.708c-3.512-3.632-9.304-3.731-12.937-0.216c-3.632,3.512-3.729,9.304-0.216,12.937
			c22.546,23.312,60.11,37.613,103.062,39.237c2.742,0.104,5.47,0.155,8.186,0.155c39.227,0,75.368-10.742,100.136-29.945
			c3.715-2.88,9.664-8.566,10.33-9.204C370.383,348.96,370.505,343.169,367.008,339.521z"/>
	</g>
</g>
<g>
	<g>
		<path d="M478.16,194.601c-5.859-10.681-16.034-18.378-27.913-21.121c-40.031-9.239-99.151-17.28-153.453-3.121
			c-13.623,3.552-27.347,5.354-40.791,5.354s-27.168-1.802-40.791-5.354c-54.303-14.161-113.421-6.117-153.454,3.122
			c-11.88,2.742-22.054,10.44-27.913,21.121c-5.851,10.664-6.878,23.357-2.817,34.826L51.697,287.8
			c6.114,17.265,22.543,28.401,40.823,27.787l94.167-3.316c20.185-0.711,37.075-15.033,41.073-34.832l4.757-23.553
			c2.248-11.133,12.125-19.215,23.486-19.215c0.001,0,0.002,0,0.004,0c11.355,0,21.229,8.078,23.478,19.21l4.758,23.558
			c3.998,19.797,20.888,34.12,41.073,34.832l94.167,3.316c0.504,0.017,1.003,0.026,1.504,0.026
			c17.692-0.001,33.373-11.023,39.321-27.813l20.669-58.372C485.038,217.958,484.011,205.266,478.16,194.601z M463.725,223.318
			l-20.669,58.372c-3.434,9.697-12.636,15.974-22.93,15.607l-94.167-3.316c-11.687-0.411-21.466-8.704-23.78-20.167l-4.758-23.558
			c-3.966-19.636-21.383-33.886-41.413-33.886c-0.002,0-0.005,0-0.007,0c-20.035,0-37.456,14.254-41.422,33.892l-4.757,23.553
			c-2.315,11.461-12.093,19.754-23.78,20.166l-94.167,3.316c-10.282,0.355-19.495-5.909-22.929-15.607l-20.669-58.372
			c-2.356-6.655-1.785-13.728,1.61-19.915c3.355-6.114,9.181-10.522,15.986-12.092c32.914-7.597,61.009-10.341,84.439-10.341
			c25.621,0,45.661,3.285,60.28,7.096c15.131,3.945,30.409,5.946,45.41,5.946c15,0,30.278-2.001,45.409-5.946
			c50.707-13.224,106.686-5.532,144.719,3.245c6.805,1.57,12.631,5.978,15.986,12.092
			C465.509,209.59,466.081,216.662,463.725,223.318z"/>
	</g>
</g>
<g>
</g>
<g>
</g>
<g>
</g>
<g>
</g>
<g>
</g>
<g>
</g>
<g>
</g>
<g>
</g>
<g>
</g>
<g>
</g>
<g>
</g>
<g>
</g>
<g>
</g>
<g>
</g>
<g>
</g>
</svg>
